<?xml version="1.0" standalone="no"?>
<!DOCTYPE svg PUBLIC "-//W3C//DTD SVG 20010904//EN"
 "http://www.w3.org/TR/2001/REC-SVG-20010904/DTD/svg10.dtd">
<svg version="1.0" xmlns="http://www.w3.org/2000/svg"
 width="700.000000pt" height="700.000000pt" viewBox="0 0 700.000000 700.000000"
 preserveAspectRatio="xMidYMid meet">
<metadata>
Created by potrace 1.11, written by Peter Selinger 2001-2013
</metadata>
<g transform="translate(0.000000,700.000000) scale(0.100000,-0.100000)"
fill="#000000" stroke="none">
<path d="M3278 6995 c-1 -1 -42 -5 -89 -9 -47 -4 -95 -8 -105 -10 -10 -2 -48
-7 -84 -12 -36 -4 -67 -8 -70 -9 -3 -1 -25 -5 -50 -9 -25 -4 -110 -23 -190
-42 -858 -200 -1631 -742 -2115 -1484 -114 -175 -198 -327 -260 -470 -21 -47
-45 -103 -55 -125 -56 -128 -151 -427 -175 -556 -3 -13 -11 -58 -20 -99 -22
-115 -30 -160 -41 -255 -26 -230 -26 -667 1 -826 2 -13 6 -46 9 -74 9 -80 17
-121 51 -285 4 -22 25 -103 30 -118 3 -9 13 -5 32 12 65 57 77 66 90 66 7 0
13 4 13 10 0 5 24 22 53 36 28 15 54 31 55 35 2 5 7 7 12 4 4 -3 25 3 46 12
22 9 50 18 64 20 13 3 27 7 30 11 3 4 16 8 30 9 55 4 99 11 108 17 7 4 7 18 2
39 -5 17 -12 48 -15 67 -3 19 -10 58 -15 85 -22 120 -33 271 -34 450 0 128 11
362 18 374 2 3 6 29 10 56 8 69 34 207 53 280 8 33 16 67 18 75 2 8 18 60 35
115 114 355 294 684 531 972 206 250 552 542 804 679 405 220 761 329 1205
371 137 13 414 7 605 -12 111 -11 366 -66 490 -106 33 -10 76 -24 95 -30 19
-5 44 -14 55 -19 11 -5 52 -21 90 -36 67 -25 275 -126 360 -174 22 -12 93 -58
159 -101 384 -258 712 -612 930 -1004 116 -208 238 -503 271 -655 2 -8 10 -42
19 -75 15 -59 49 -248 61 -335 13 -101 19 -224 18 -375 0 -197 -7 -291 -33
-445 -5 -30 -12 -71 -15 -90 -41 -256 -195 -670 -333 -900 -12 -19 -29 -48
-38 -65 -73 -133 -267 -379 -419 -531 -257 -258 -471 -413 -783 -568 -222
-110 -510 -211 -692 -241 -19 -3 -42 -8 -50 -10 -8 -2 -33 -6 -55 -10 -22 -3
-53 -8 -70 -11 -196 -35 -584 -37 -815 -4 -41 6 -93 13 -115 16 -22 3 -46 7
-54 10 -7 2 -48 11 -90 20 -42 8 -87 19 -101 23 -14 5 -59 19 -100 31 -200 59
-471 179 -662 296 -94 57 -266 177 -303 211 -11 10 -36 30 -55 44 -19 15 -82
72 -140 127 l-105 101 -17 -23 c-26 -35 -98 -107 -98 -99 0 4 -7 -3 -16 -15
-8 -12 -21 -22 -27 -22 -7 0 -18 -9 -25 -20 -7 -11 -19 -20 -26 -20 -8 0 -21
-6 -28 -13 -29 -28 -196 -96 -245 -99 -7 -1 -13 -4 -13 -7 0 -7 173 -184 246
-251 89 -83 231 -197 353 -284 67 -47 123 -86 126 -86 3 0 35 -19 72 -43 234
-149 707 -350 923 -392 8 -2 35 -8 60 -15 53 -14 61 -16 160 -35 96 -18 123
-23 179 -31 25 -3 57 -8 71 -10 163 -25 682 -25 842 1 13 2 46 7 73 10 72 10
86 12 120 19 17 3 44 8 60 11 123 23 322 77 455 122 884 300 1625 960 2030
1808 158 332 275 734 316 1090 4 33 9 76 11 95 8 70 10 517 3 595 -13 131 -21
202 -25 227 -3 13 -8 43 -11 68 -3 25 -9 61 -14 80 -5 19 -12 51 -15 70 -3 19
-19 87 -35 150 -196 782 -691 1504 -1355 1976 -446 317 -972 534 -1480 610
-27 4 -57 9 -65 10 -8 2 -44 6 -80 10 -36 3 -78 8 -95 11 -33 5 -531 13 -537
8z"/>
<path d="M2010 5576 c-68 -20 -104 -41 -157 -94 -198 -198 -114 -536 153 -615
97 -29 211 -14 295 39 56 35 126 120 149 182 25 66 30 175 10 237 -31 100
-105 185 -197 231 -65 31 -182 41 -253 20z"/>
<path d="M4168 4520 c-246 -46 -443 -146 -612 -314 -210 -207 -346 -474 -402
-786 -2 -14 -6 -34 -9 -46 -14 -61 -20 -181 -19 -364 1 -224 19 -362 69 -535
27 -91 32 -104 90 -232 93 -201 266 -402 452 -524 129 -84 244 -131 407 -167
113 -24 397 -23 515 2 97 21 231 63 246 77 5 5 14 9 21 9 14 0 151 78 214 123
25 17 88 74 140 127 186 186 307 415 368 700 21 94 24 116 38 255 9 85 8 365
0 420 -4 22 -9 58 -11 80 -10 76 -30 168 -66 290 -77 267 -278 538 -527 713
-87 61 -295 147 -402 166 -19 3 -46 9 -60 12 -14 3 -99 7 -190 9 -126 2 -188
-1 -262 -15z m421 -550 c114 -32 198 -83 280 -169 107 -113 196 -296 226 -466
4 -22 9 -49 11 -60 19 -106 19 -374 -1 -471 -3 -12 -7 -39 -11 -60 -8 -57 -59
-204 -93 -271 -83 -165 -221 -302 -361 -359 -81 -33 -101 -36 -220 -40 -365
-11 -615 229 -705 678 -19 96 -26 365 -12 492 36 326 192 592 412 696 127 61
323 73 474 30z"/>
<path d="M1828 4473 c-3 -5 -4 -654 -4 -1443 l1 -1435 283 -3 c264 -2 282 -1
283 15 0 10 0 659 0 1443 l1 1425 -280 3 c-155 1 -282 -1 -284 -5z"/>
<path d="M592 2390 c-71 -15 -160 -69 -218 -133 -86 -96 -124 -196 -118 -312
4 -80 9 -100 43 -170 69 -139 220 -239 369 -244 122 -4 229 37 316 122 185
179 186 436 2 622 -76 76 -163 115 -269 120 -45 2 -101 0 -125 -5z"/>
</g>
</svg>
